<svg xmlns="http://www.w3.org/2000/svg" aria-hidden="true" style="position:absolute;width:0;height:0;overflow:hidden">
  <defs>
    <symbol id="icon-ask" viewBox="0 0 32 32">
      <path fill="#ed3b44" d="M6.667 0h18.667a6.667 6.667 0 0 1 6.667 6.667v18.667a6.667 6.667 0 0 1-6.667 6.667H6.667A6.667 6.667 0 0 1 0 25.334V6.667A6.667 6.667 0 0 1 6.667 0z" style="fill:var(--color1, #ed3b44)"/>
      <path fill="none" stroke="#fafafa" stroke-linecap="round" stroke-linejoin="round" stroke-width="1.333" d="M12.063 15.486a5.398 5.398 0 0 1-.063-.819c0-2.946 2.403-5.333 5.368-5.333s5.368 2.388 5.368 5.333c0 .665-.123 1.302-.347 1.89-.047.122-.07.183-.08.231s-.015.08-.016.129c-.001.049.005.102.019.21l.268 2.18c.029.236.044.354.004.44a.334.334 0 0 1-.171.168c-.087.037-.204.02-.44-.014l-2.123-.311c-.111-.016-.166-.024-.217-.024s-.084.004-.133.014-.113.034-.239.081a5.379 5.379 0 0 1-2.714.279m-3.459 2.727c1.977 0 3.579-1.642 3.579-3.667s-1.602-3.667-3.579-3.667S9.509 16.975 9.509 19c0 .407.065.799.184 1.164.051.155.076.232.084.285.009.055.01.086.007.142a1.563 1.563 0 0 1-.043.234l-.408 1.841 1.997-.273c.109-.015.163-.022.211-.022.05 0 .077.003.126.013.047.009.116.034.255.083a3.5 3.5 0 0 0 1.166.199z" style="stroke:var(--color2, #fafafa)"/>
    </symbol>
    <symbol id="icon-bottom" viewBox="0 0 32 32">
      <path stroke-width="3.2" d="m24 20-8-8-8 8"/>
    </symbol>
    <symbol id="icon-clock" viewBox="0 0 32 32">
      <path fill="#ed3b44" d="M6.667 0h18.667a6.667 6.667 0 0 1 6.667 6.667v18.667a6.667 6.667 0 0 1-6.667 6.667H6.667A6.667 6.667 0 0 1 0 25.334V6.667A6.667 6.667 0 0 1 6.667 0z" style="fill:var(--color1, #ed3b44)"/>
      <path fill="none" stroke="#fafafa" stroke-linecap="round" stroke-linejoin="round" stroke-width="1.333" d="M20.108 9.333h-8.217a.558.558 0 0 0-.558.558 6.7 6.7 0 0 0 1.962 4.737l.813.813c.081.081.121.121.15.16a.668.668 0 0 1 0 .797c-.029.039-.069.079-.15.16l-.813.813a6.7 6.7 0 0 0-1.962 4.737c0 .308.25.558.558.558h8.217c.308 0 .558-.25.558-.558a6.7 6.7 0 0 0-1.962-4.737l-.813-.813a1.653 1.653 0 0 1-.15-.16.668.668 0 0 1 0-.797c.029-.039.069-.079.15-.16l.813-.813a6.7 6.7 0 0 0 1.962-4.737.558.558 0 0 0-.558-.558z" style="stroke:var(--color2, #fafafa)"/>
    </symbol>
    <symbol id="icon-left" viewBox="0 0 32 32">
      <path stroke-width=".471" d="M16 31.765C7.293 31.765.235 24.707.235 16S7.293.235 16 .235 31.765 7.293 31.765 16 24.707 31.765 16 31.765z"/>
      <path stroke-linecap="round" stroke-linejoin="round" stroke-width=".941" d="M21.02 16H10.981m3.764 3.765L10.98 16l3.765-3.765"/>
    </symbol>
    <symbol id="icon-man" viewBox="0 0 32 32">
      <path fill="#ed3b44" d="M6.667 0h18.667a6.667 6.667 0 0 1 6.667 6.667v18.667a6.667 6.667 0 0 1-6.667 6.667H6.667A6.667 6.667 0 0 1 0 25.334V6.667A6.667 6.667 0 0 1 6.667 0z" style="fill:var(--color1, #ed3b44)"/>
      <path fill="none" stroke="#fafafa" stroke-linecap="round" stroke-linejoin="round" stroke-width="1.333" d="M21.333 22c0-.93 0-1.396-.115-1.774a2.67 2.67 0 0 0-1.778-1.778c-.379-.115-.844-.115-1.774-.115h-3.333c-.93 0-1.396 0-1.774.115a2.67 2.67 0 0 0-1.778 1.778c-.115.379-.115.844-.115 1.774M16 16a3 3 0 1 0 0-6 3 3 0 0 0 0 6z" style="stroke:var(--color2, #fafafa)"/>
    </symbol>
    <symbol id="icon-pencil" viewBox="0 0 32 32">
      <path fill="#ed3b44" d="M6.667 0h18.667a6.667 6.667 0 0 1 6.667 6.667v18.667a6.667 6.667 0 0 1-6.667 6.667H6.667A6.667 6.667 0 0 1 0 25.334V6.667A6.667 6.667 0 0 1 6.667 0z" style="fill:var(--color1, #ed3b44)"/>
      <path fill="none" stroke="#fafafa" stroke-linecap="round" stroke-linejoin="round" stroke-width="1.333" d="M16.519 18 14 15.482m-4.667 7.185c1.333 0 3.072.228 3.983-.683a2.334 2.334 0 0 0-3.3-3.3c-.911.911 0 2.65-.683 3.983z" style="stroke:var(--color2, #fafafa)"/>
      <path fill="none" stroke="#fafafa" stroke-linecap="round" stroke-linejoin="round" stroke-width="1.333" d="M13.333 18.667c-.328-.328-.491-.491-.584-.663a1.332 1.332 0 0 1 .025-1.311c.099-.168.269-.325.609-.64l6.579-6.091a1.47 1.47 0 0 1 2.077 2.077l-6.091 6.579c-.315.34-.472.51-.64.609-.403.238-.9.247-1.311.025-.172-.093-.335-.256-.663-.584z" style="stroke:var(--color2, #fafafa)"/>
    </symbol>
    <symbol id="icon-right" viewBox="0 0 32 32">
      <path stroke-width=".471" d="M16 .235C24.707.235 31.765 7.293 31.765 16S24.707 31.765 16 31.765.235 24.707.235 16 7.293.235 16 .235z"/>
      <path stroke-linecap="round" stroke-linejoin="round" stroke-width=".941" d="M10.98 16h10.039m-3.764-3.765L21.02 16l-3.765 3.765"/>
    </symbol>
    <symbol id="icon-top" viewBox="0 0 32 32">
      <path stroke-width="3.2" d="m24 20-8-8-8 8"/>
    </symbol>
    <symbol id="icon-instagram-logo-1" viewBox="0 0 32 32">
      <path fill="#ffd4e4" d="M18.343 14.701c-.445-.925-1.877-2.003-2.797-1.242-1.329.006-2.108 1.543-2.033 2.827.114 1.974 2.277 2.76 3.948 2.077 1.502-.613 1.486-2.408.882-3.663zm-2.032 3.224c.213-.032.427-.096.633-.19.023.02.048.036.073.053a2.12 2.12 0 0 1-.706.138zm6.389-7.427a8.792 8.792 0 0 0-.031-.955c-.014-.195-.152-.357-.358-.358-.398-.001-1.678-.156-2.115.211-.122-.134-.384-.087-.4.147-.06.913-.102 1.825-.108 2.74-.001.143.103.297.249.327.184.038.377.067.569.083a.301.301 0 0 0 .048.06c.448.425 1.327.101 1.849.019.114-.018.218-.137.244-.244.161-.652.198-1.371.052-2.031z" style="fill:var(--color4, #ffd4e4)"/>
      <path fill="#ffd4e4" d="M23.126 15.328a.383.383 0 0 0-.341-.337c.205-.215.016-.671-.352-.583a3.65 3.65 0 0 1-1.564.022c-.191-.038-.326.087-.364.232a.333.333 0 0 0-.062.306c.825 3.155-.863 5.72-4.199 5.782-3.133.058-5.137-2.333-4.5-5.374.022-.106.009-.247-.085-.32l-.027-.025a.328.328 0 0 0-.044-.396c-.01-.011-.023-.02-.034-.03a.648.648 0 0 0 .05-.189c.013-.137-.125-.253-.253-.253a.793.793 0 0 0-.358.094.372.372 0 0 0-.098-.028c-.679-.089-1.303.107-1.979.158-.18.014-.335.141-.334.334.006 1.015.011 2.03.019 3.044a.283.283 0 0 0 .046.164c.03 1.455.471 2.983 1.078 3.945 1.26 1.996 4.256 1.837 6.319 1.953 1.762.1 5.536.58 6.604-1.31 1.086-1.922.729-5.089.478-7.187zm-1.938 5.684-.016-.016c.093-.335.172-.673.237-1.015l.052-.136a10.3 10.3 0 0 1-.026.185c-.087.326-.169.654-.247.982zm-.697 1.952c.163-.085.319-.188.465-.315l.045.015a.364.364 0 0 0 .104.017c.022.031.05.057.081.079a3.47 3.47 0 0 1-.743.273.29.29 0 0 0 .048-.068zM11.11 15.2a6.21 6.21 0 0 0-.118.505 5.808 5.808 0 0 0-.039-.323.343.343 0 0 0 .079-.271c.036.009.071.02.104.033-.009.018-.02.034-.026.055zm4.97 7.915.717-.048c0 .027.002.052.007.078-.146-.008-.286-.016-.417-.021l-.307-.01z" style="fill:var(--color4, #ffd4e4)"/>
      <path fill="#ffd4e4" d="M27.328 5.11c-1.723-2.168-4.061-3.828-6.71-4.641-2.716-.834-5.82-.449-8.503.323-5.336 1.537-9.424 5.792-10.86 11.127a15.168 15.168 0 0 0-.395 5.974c0 .008-.003.014-.003.023.036.434.116.844.222 1.24.54 2.467 1.678 4.806 3.312 6.897 2.822 3.612 7.68 6.662 12.384 5.557-.003.23.179.462.459.369 5.621-1.862 10.795-5.073 13.053-10.79 2.156-5.457.599-11.6-2.96-16.079zM1.497 17.641a13.42 13.42 0 0 1-.088-1.233l.018.123c.023.384.065.765.114 1.142l-.044-.032zm1.597-1.928c-.018.062-.035.123-.054.184-.005-.121-.01-.241-.011-.362l.068-.24c-.003.139-.004.279-.003.418zm12.35 13.486-.697-.137c.234.02.468.046.701.069-.005.023-.004.046-.005.069zm9.228-1.923c.132-.052.263-.109.393-.17-.108.087-.214.177-.324.262a.414.414 0 0 0-.068-.092zM16.724 5.945c.136.006.272.015.407.026l-.001.003c-.297.015-.594.036-.891.064.162-.029.323-.061.484-.093zM5.191 22.908c-.069-.235-.137-.471-.209-.705.119.28.243.557.371.833l-.163-.128zm.74-13.861c-.052.037-.106.073-.159.109a.343.343 0 0 0-.072-.047c.12-.107.235-.218.352-.329a5.868 5.868 0 0 0-.121.267zm.708 11.675.006-.357c.01.017.017.035.027.052.005.008.01.011.016.018.028.196.064.39.105.582l-.154-.295zm1.884 2.41c-1.578-1.646-1.289-4.557-1.157-6.63.133-2.081.464-4.246.135-6.326.038-.102.087-.194.135-.287.235-.266.454-.544.649-.838 1.426-1.256 4.079-1.298 5.774-1.355 2.416-.081 5.009-.317 7.386.174 2.884.595 3.429 3.192 3.396 5.783-.034 2.681.096 5.485-.637 8.088-.935 3.318-4.428 3.215-7.297 3.176-1.5-.02-2.998-.144-4.49-.289-1.457-.142-2.843-.399-3.894-1.496zm4.479 7.724c.651.093 1.303.171 1.958.239a11.078 11.078 0 0 1-1.958-.239z" style="fill:var(--color4, #ffd4e4)"/>
    </symbol>
<symbol id="icon-jefferson" viewBox="0 0 141 32">
<path fill="#fafafa" style="fill: var(--color1, #fafafa)" d="M133.416 15.158l0.234-4.936-4.313 2.685-1.337-2.219 4.58-2.251-4.58-2.251 1.337-2.251 4.313 2.685-0.234-4.936h2.641l-0.234 4.936 4.313-2.685 1.337 2.251-4.58 2.251 4.58 2.251-1.337 2.219-4.313-2.685 0.234 4.936h-2.641z"></path>
<path fill="#fafafa" style="fill: var(--color1, #fafafa)" d="M112.987 14.412v10.851h-3.513v-18.297h3.415v3.011h0.244c0.412-0.993 1.057-1.778 1.936-2.357 0.878-0.589 2.006-0.884 3.383-0.884 1.236 0 2.315 0.262 3.236 0.786 0.933 0.513 1.654 1.282 2.163 2.308 0.52 1.026 0.781 2.297 0.781 3.813v11.62h-3.513v-11.194c0-1.32-0.347-2.357-1.041-3.11-0.694-0.764-1.637-1.146-2.83-1.146-0.813 0-1.545 0.185-2.196 0.556-0.64 0.36-1.144 0.878-1.512 1.555s-0.553 1.506-0.553 2.488z"></path>
<path fill="#fafafa" style="fill: var(--color1, #fafafa)" d="M99.36 25.263c-1.69 0-3.17-0.385-4.441-1.155-1.26-0.77-2.239-1.85-2.939-3.24-0.689-1.39-1.033-3.005-1.033-4.844 0-1.861 0.344-3.486 1.033-4.876 0.7-1.401 1.679-2.486 2.939-3.256 1.27-0.77 2.75-1.155 4.441-1.155 1.701 0 3.181 0.385 4.441 1.155s2.239 1.855 2.939 3.256c0.7 1.39 1.050 3.016 1.050 4.876 0 1.839-0.35 3.454-1.050 4.844s-1.679 2.47-2.939 3.24c-1.259 0.77-2.74 1.155-4.441 1.155zM99.36 22.328c1.109 0 2.024-0.289 2.745-0.866s1.254-1.342 1.599-2.294c0.355-0.963 0.533-2.010 0.533-3.144 0-1.155-0.178-2.214-0.533-3.176-0.344-0.962-0.877-1.732-1.599-2.31s-1.636-0.866-2.745-0.866c-1.098 0-2.008 0.289-2.729 0.866-0.711 0.577-1.243 1.347-1.599 2.31s-0.533 2.021-0.533 3.176c0 1.134 0.178 2.181 0.533 3.144 0.355 0.952 0.888 1.716 1.599 2.294 0.721 0.577 1.631 0.866 2.729 0.866z"></path>
<path fill="#fafafa" style="fill: var(--color1, #fafafa)" d="M88.896 11.356l-3.289 0.545c-0.212-0.599-0.606-1.15-1.185-1.652-0.568-0.503-1.419-0.754-2.554-0.754-1.024 0-1.881 0.225-2.571 0.674-0.679 0.438-1.018 1-1.018 1.684 0 0.599 0.228 1.085 0.684 1.46 0.467 0.374 1.207 0.674 2.22 0.898l2.988 0.642c1.703 0.374 2.977 0.962 3.823 1.764s1.269 1.829 1.269 3.080c0 1.080-0.323 2.042-0.968 2.887-0.645 0.834-1.541 1.492-2.688 1.973-1.146 0.47-2.471 0.706-3.973 0.706-2.092 0-3.795-0.433-5.108-1.299s-2.12-2.085-2.421-3.657l3.489-0.513c0.222 0.877 0.673 1.54 1.352 1.989 0.69 0.449 1.58 0.674 2.671 0.674 1.18 0 2.126-0.241 2.838-0.722 0.723-0.481 1.085-1.064 1.085-1.748 0-1.133-0.879-1.898-2.637-2.294l-3.155-0.674c-1.747-0.385-3.038-0.989-3.873-1.813-0.824-0.834-1.235-1.882-1.235-3.144 0-1.059 0.306-1.989 0.918-2.791 0.623-0.802 1.475-1.422 2.554-1.861 1.091-0.449 2.331-0.674 3.723-0.674 2.026 0 3.611 0.422 4.758 1.267 1.157 0.845 1.925 1.962 2.304 3.352z"></path>
<path fill="#fafafa" style="fill: var(--color1, #fafafa)" d="M64 25.263v-18.265h3.538v2.924h0.203c0.35-0.98 0.959-1.754 1.828-2.32 0.88-0.577 1.873-0.866 2.979-0.866 0.226 0 0.491 0.011 0.795 0.033 0.316 0.011 0.57 0.027 0.762 0.049v3.398c-0.147-0.044-0.412-0.087-0.796-0.131-0.372-0.044-0.75-0.065-1.134-0.065-0.869 0-1.648 0.18-2.336 0.539-0.677 0.349-1.213 0.833-1.608 1.454-0.384 0.61-0.576 1.318-0.576 2.124v11.126h-3.656z"></path>
<path fill="#fafafa" style="fill: var(--color1, #fafafa)" d="M54.344 25.263c-1.82 0-3.395-0.38-4.726-1.139s-2.358-1.829-3.079-3.208c-0.71-1.39-1.065-3.010-1.065-4.86 0-1.839 0.349-3.459 1.048-4.86 0.71-1.401 1.703-2.492 2.979-3.272 1.287-0.791 2.796-1.187 4.527-1.187 1.054 0 2.075 0.166 3.062 0.497s1.875 0.855 2.663 1.572c0.788 0.716 1.409 1.647 1.864 2.791 0.466 1.144 0.699 2.524 0.699 4.138v1.251h-14.795v-2.615h12.931l-1.681 0.866c0-1.101-0.178-2.075-0.533-2.919s-0.888-1.502-1.598-1.973c-0.699-0.481-1.57-0.722-2.613-0.722s-1.936 0.241-2.68 0.722c-0.732 0.481-1.292 1.117-1.681 1.909s-0.582 1.657-0.582 2.598v1.78c0 1.23 0.222 2.272 0.666 3.128s1.060 1.508 1.847 1.957c0.799 0.449 1.725 0.674 2.779 0.674 0.688 0 1.309-0.096 1.864-0.289 0.566-0.192 1.054-0.481 1.464-0.866s0.721-0.861 0.932-1.428l3.428 0.626c-0.277 0.963-0.766 1.807-1.465 2.534s-1.581 1.294-2.646 1.7c-1.054 0.396-2.258 0.594-3.611 0.594z"></path>
<path fill="#fafafa" style="fill: var(--color1, #fafafa)" d="M46.213 7.158v2.834h-10.844v-2.834h10.844zM38.324 25.263v-20.211c0-1.123 0.264-2.057 0.791-2.802 0.538-0.756 1.237-1.317 2.097-1.684 0.871-0.378 1.804-0.567 2.801-0.567 0.767 0 1.421 0.059 1.959 0.178s0.934 0.221 1.186 0.308l-0.894 2.85c-0.172-0.054-0.395-0.113-0.67-0.178-0.263-0.065-0.596-0.097-0.997-0.097-0.905 0-1.558 0.216-1.959 0.648-0.401 0.421-0.601 1.036-0.601 1.846v19.709h-3.712z"></path>
<path fill="#fafafa" style="fill: var(--color1, #fafafa)" d="M36.107 7.158v2.834h-10.844v-2.834h10.844zM28.219 25.263v-20.211c0-1.123 0.264-2.057 0.791-2.802 0.538-0.756 1.237-1.317 2.097-1.684 0.871-0.378 1.804-0.567 2.801-0.567 0.767 0 1.421 0.059 1.959 0.178s0.934 0.221 1.186 0.308l-0.894 2.85c-0.172-0.054-0.395-0.113-0.67-0.178-0.263-0.065-0.596-0.097-0.997-0.097-0.905 0-1.558 0.216-1.959 0.648-0.401 0.421-0.601 1.036-0.601 1.846v19.709h-3.712z"></path>
<path fill="#fafafa" style="fill: var(--color1, #fafafa)" d="M17.291 25.263c-1.82 0-3.395-0.38-4.726-1.139s-2.358-1.829-3.079-3.208c-0.71-1.39-1.065-3.010-1.065-4.86 0-1.839 0.35-3.459 1.048-4.86 0.71-1.401 1.703-2.492 2.979-3.272 1.287-0.791 2.796-1.187 4.527-1.187 1.054 0 2.075 0.166 3.062 0.497s1.875 0.855 2.663 1.572c0.788 0.716 1.409 1.647 1.864 2.791 0.466 1.144 0.699 2.524 0.699 4.138v1.251h-14.795v-2.615h12.931l-1.681 0.866c0-1.101-0.178-2.075-0.533-2.919s-0.888-1.502-1.598-1.973c-0.699-0.481-1.57-0.722-2.613-0.722s-1.936 0.241-2.68 0.722c-0.732 0.481-1.293 1.117-1.681 1.909s-0.582 1.657-0.582 2.598v1.78c0 1.23 0.222 2.272 0.666 3.128s1.060 1.508 1.847 1.957c0.799 0.449 1.725 0.674 2.779 0.674 0.688 0 1.309-0.096 1.864-0.289 0.566-0.192 1.054-0.481 1.464-0.866s0.721-0.861 0.932-1.428l3.428 0.626c-0.277 0.963-0.766 1.807-1.465 2.534s-1.581 1.294-2.646 1.7c-1.054 0.396-2.258 0.594-3.611 0.594z"></path>
<path fill="#fafafa" style="fill: var(--color1, #fafafa)" d="M2.878 7.012h3.416v19.376c0.011 1.215-0.2 2.24-0.633 3.075s-1.065 1.464-1.898 1.887c-0.833 0.434-1.856 0.651-3.068 0.651h-0.696v-3.042h0.553c0.822 0 1.413-0.222 1.771-0.667s0.543-1.085 0.554-1.92v-19.36zM4.57 4.214c-0.601 0-1.112-0.206-1.534-0.618s-0.633-0.906-0.633-1.48c0-0.586 0.211-1.085 0.633-1.497s0.933-0.618 1.534-0.618c0.59 0 1.096 0.206 1.518 0.618 0.432 0.412 0.648 0.911 0.648 1.497 0 0.575-0.216 1.068-0.648 1.48-0.422 0.412-0.928 0.618-1.518 0.618z"></path>
</symbol>
  </defs>
</svg>
